<svg width="28" height="26" viewBox="0 0 28 26" fill="none" xmlns="http://www.w3.org/2000/svg">
<path d="M5.38889 5.92611C5.56548 5.207 6.21025 4.70142 6.95072 4.70142H21.4627C22.2314 4.70142 22.8927 5.24549 23.0408 5.99985L26.2458 22.326C26.4408 23.3196 25.6802 24.244 24.6677 24.244H2.94141C1.8979 24.244 1.13071 23.2656 1.37958 22.2522L5.38889 5.92611Z" stroke="#0E0E0E" stroke-width="1.60824" stroke-linecap="round"/>
<path d="M18.3532 4.57576C18.1586 3.5574 17.6159 2.63845 16.8179 1.97649C16.02 1.31454 15.0166 0.950835 13.9799 0.947754V0.947754C12.947 0.950861 11.9471 1.31182 11.1503 1.96918C10.3536 2.62655 9.80933 3.5397 9.61011 4.55321" stroke="#0E0E0E" stroke-width="1.60824" stroke-linecap="round" stroke-linejoin="round"/>
</svg>
