<svg width="80" height="80" viewBox="0 0 80 80" fill="none" xmlns="http://www.w3.org/2000/svg">
<mask id="mask0_4_26677" style="mask-type:alpha" maskUnits="userSpaceOnUse" x="0" y="0" width="80" height="80">
<rect width="80" height="80" fill="#F4F4F4"/>
</mask>
<g mask="url(#mask0_4_26677)">
<rect x="-15.8229" y="-12" width="104.803" height="104" fill="#F4F4F4"/>
<path d="M45.5706 20.7319H19.8799C18.461 20.7319 17.3108 21.8821 17.3108 23.301V48.9918C17.3108 50.4106 18.461 51.5608 19.8799 51.5608H45.5706C46.9895 51.5608 48.1397 50.4106 48.1397 48.9918V23.301C48.1397 21.8821 46.9895 20.7319 45.5706 20.7319Z" stroke="#070707" stroke-width="2.5" stroke-linecap="round" stroke-linejoin="round"/>
<path d="M30.5961 40.459C30.4423 40.5357 30.2715 40.5719 30.0999 40.564C29.9282 40.5561 29.7614 40.5046 29.6153 40.4141C29.4691 40.3237 29.3485 40.1975 29.2649 40.0474C29.1812 39.8973 29.1373 39.7283 29.1373 39.5564V32.7362C29.1373 32.5643 29.1812 32.3953 29.2649 32.2452C29.3485 32.0951 29.4691 31.9689 29.6153 31.8785C29.7614 31.788 29.9282 31.7365 30.0999 31.7286C30.2715 31.7207 30.4423 31.7569 30.5961 31.8335L37.4176 35.2449C37.5851 35.3285 37.726 35.4571 37.8245 35.6163C37.923 35.7756 37.9751 35.9591 37.9751 36.1463C37.9751 36.3335 37.923 36.517 37.8245 36.6763C37.726 36.8355 37.5851 36.9641 37.4176 37.0477L30.5961 40.459Z" stroke="#070707" stroke-width="2.5" stroke-linecap="round" stroke-linejoin="round"/>
<path d="M53.2779 28.4395C53.9593 28.4395 54.6127 28.7101 55.0945 29.1919C55.5763 29.6737 55.847 30.3272 55.847 31.0085V56.6993C55.847 57.3806 55.5763 58.0341 55.0945 58.5159C54.6127 58.9977 53.9593 59.2684 53.2779 59.2684H27.5871C26.9058 59.2684 26.2523 58.9977 25.7705 58.5159C25.2887 58.0341 25.0181 57.3806 25.0181 56.6993" stroke="#070707" stroke-width="2.5" stroke-linecap="round" stroke-linejoin="round"/>
</g>
</svg>
