<svg width="123" height="30" viewBox="0 0 123 30" fill="none" xmlns="http://www.w3.org/2000/svg">
<path d="M0.377686 10.4494L7.11014 4.79211H30.253V27.0934H0.377686V10.4494Z" fill="#08080C"/>
<circle cx="22.4089" cy="8.79808" r="1.31102" fill="white"/>
<circle cx="15.3154" cy="16.4688" r="5.93097" fill="white" stroke="white" stroke-width="1.60297"/>
<rect x="19.0098" y="2.91174" width="7.29829" height="1.88035" fill="#08080C"/>
<path d="M47.4953 11.0305C47.4042 10.3476 47.1007 9.862 46.5848 9.57368C46.0688 9.27019 45.4239 9.10326 44.65 9.07291C44.3769 9.07291 44.0885 9.09568 43.785 9.1412C43.4967 9.18673 43.2236 9.27777 42.9656 9.41435C42.7076 9.55092 42.4952 9.73302 42.3283 9.96064C42.1613 10.1883 42.0779 10.469 42.0779 10.8028C42.0627 11.1519 42.1462 11.4478 42.3283 11.6906C42.5255 11.9334 42.7835 12.1306 43.1022 12.2824C43.3298 12.3886 43.5726 12.4872 43.8306 12.5783C44.1037 12.6542 44.3693 12.73 44.6272 12.8059C44.8852 12.8666 45.1356 12.9197 45.3784 12.9652C45.6212 13.0108 45.8336 13.0563 46.0157 13.1018C46.6682 13.2384 47.298 13.3977 47.905 13.5798C48.512 13.7619 49.0507 14.0123 49.5211 14.331C49.9915 14.6496 50.3709 15.0745 50.6592 15.6056C50.9475 16.1368 51.0993 16.8272 51.1144 17.677C51.1144 18.6027 50.9399 19.3917 50.5909 20.0443C50.2419 20.6968 49.7715 21.2203 49.1797 21.6148C48.6182 22.0094 47.9657 22.2977 47.2221 22.4798C46.4786 22.6467 45.6591 22.715 44.7638 22.6847C43.8988 22.6695 43.087 22.5557 42.3283 22.3432C41.5695 22.1156 40.8942 21.7894 40.3024 21.3645C39.7258 20.9396 39.263 20.4084 38.9139 19.7711C38.5649 19.1338 38.3677 18.3826 38.3221 17.5177H41.6909C41.782 17.9122 41.9337 18.2385 42.1462 18.4964C42.3586 18.7544 42.609 18.9668 42.8973 19.1338C43.1856 19.3007 43.5043 19.4221 43.8533 19.498C44.2175 19.5738 44.5817 19.6194 44.9459 19.6345C45.3253 19.6497 45.6895 19.6345 46.0385 19.589C46.3875 19.5435 46.691 19.46 46.949 19.3386C47.2221 19.2021 47.4346 19.02 47.5863 18.7923C47.7381 18.5647 47.8139 18.2764 47.8139 17.9274C47.8139 17.4418 47.6622 17.0852 47.3587 16.8576C47.0704 16.6299 46.7517 16.4706 46.4027 16.3796C46.1599 16.3189 45.9398 16.2657 45.7426 16.2202C45.5605 16.1595 45.3784 16.114 45.1963 16.0836C45.0142 16.0381 44.8245 15.9926 44.6272 15.9471C44.43 15.9015 44.2023 15.8484 43.9444 15.7877C43.3677 15.636 42.7683 15.4691 42.1462 15.287C41.5392 15.0897 40.9929 14.8166 40.5073 14.4675C39.9155 14.0578 39.4678 13.5343 39.1643 12.897C38.876 12.2596 38.747 11.554 38.7774 10.7801C38.8229 9.86959 39.0353 9.11844 39.4147 8.52662C39.7941 7.91963 40.2797 7.44163 40.8715 7.09261C41.4633 6.74359 42.1158 6.5008 42.829 6.36422C43.5422 6.22765 44.2555 6.16695 44.9687 6.18213C45.7578 6.1973 46.4861 6.31111 47.1538 6.52356C47.8367 6.72083 48.4285 7.01674 48.9293 7.41128C49.4452 7.80582 49.8625 8.30659 50.1812 8.91358C50.4999 9.52057 50.6971 10.2262 50.773 11.0305H47.4953ZM59.2515 19.8166C59.4943 19.8166 59.7675 19.7711 60.071 19.6801C60.3745 19.589 60.64 19.4752 60.8676 19.3386L61.7781 21.7742C61.5657 21.9107 61.3229 22.0397 61.0497 22.1611C60.7918 22.2674 60.5035 22.366 60.1848 22.457C59.8813 22.5329 59.593 22.586 59.3198 22.6164C59.0467 22.6467 58.7963 22.6619 58.5687 22.6619C57.8403 22.6619 57.1954 22.5633 56.6339 22.366C56.0876 22.1687 55.6324 21.8728 55.2682 21.4783C54.9343 21.1444 54.6839 20.7119 54.517 20.1808C54.3653 19.6497 54.2894 19.0503 54.2894 18.3826V13.3067H52.4684V10.5069H54.2894V7.22918H57.4989V10.5069H61.027V13.3067H57.4989V17.6315C57.4989 17.9046 57.514 18.1702 57.5444 18.4281C57.5899 18.6709 57.6734 18.8986 57.7948 19.111C57.9313 19.3235 58.1134 19.498 58.3411 19.6345C58.5838 19.7559 58.8873 19.8166 59.2515 19.8166ZM68.6912 22.6847C66.7489 22.6847 65.2542 22.1384 64.2071 21.0458C63.16 19.938 62.6365 18.4054 62.6365 16.4478C62.6365 15.507 62.7731 14.6572 63.0462 13.8985C63.3346 13.1246 63.7291 12.4645 64.2299 11.9182C64.7458 11.3719 65.3756 10.9622 66.1191 10.689C66.8779 10.4007 67.7352 10.2565 68.6912 10.2565C69.6321 10.2565 70.4743 10.4007 71.2178 10.689C71.9766 10.9622 72.6139 11.3719 73.1298 11.9182C73.661 12.4645 74.0631 13.1246 74.3362 13.8985C74.6246 14.6572 74.7687 15.507 74.7687 16.4478C74.7687 18.4206 74.2376 19.9532 73.1754 21.0458C72.1283 22.1384 70.6336 22.6847 68.6912 22.6847ZM68.6912 13.1246C67.7049 13.1246 66.9765 13.4432 66.5061 14.0806C66.0357 14.7179 65.8004 15.5146 65.8004 16.4706C65.8004 17.4418 66.0357 18.246 66.5061 18.8834C66.9765 19.5207 67.7049 19.8394 68.6912 19.8394C69.6776 19.8394 70.3984 19.5207 70.8536 18.8834C71.3089 18.246 71.5365 17.4418 71.5365 16.4706C71.5365 15.5146 71.3089 14.7179 70.8536 14.0806C70.3984 13.4432 69.6776 13.1246 68.6912 13.1246ZM82.3152 19.8394C82.9222 19.8394 83.4002 19.6952 83.7493 19.4069C84.1135 19.1186 84.3335 18.7923 84.4094 18.4281H87.7782C87.6719 19.2021 87.4519 19.8546 87.1181 20.3857C86.7842 20.9168 86.3669 21.3569 85.8661 21.7059C85.3805 22.0549 84.8267 22.3053 84.2045 22.457C83.5823 22.6088 82.9374 22.6847 82.2697 22.6847C81.2682 22.6847 80.3956 22.5481 79.6521 22.2749C78.9237 21.9866 78.3167 21.5769 77.8311 21.0458C77.3455 20.4995 76.9737 19.847 76.7158 19.0882C76.473 18.3143 76.3516 17.4494 76.3516 16.4934C76.3516 15.5677 76.4881 14.7179 76.7613 13.944C77.0344 13.1701 77.4214 12.51 77.9222 11.9637C78.4381 11.4174 79.0679 11.0001 79.8114 10.7118C80.555 10.4083 81.4048 10.2565 82.3608 10.2565C83.0588 10.2565 83.7113 10.34 84.3183 10.5069C84.9405 10.6739 85.4868 10.9318 85.9572 11.2808C86.4428 11.6299 86.8373 12.0775 87.1408 12.6238C87.4595 13.1549 87.6719 13.7923 87.7782 14.5358H84.4094C84.3335 14.1716 84.1059 13.8454 83.7265 13.5571C83.3623 13.2687 82.8843 13.1246 82.2925 13.1246C81.7917 13.1246 81.3592 13.2156 80.995 13.3977C80.6309 13.5798 80.3425 13.8302 80.1301 14.1489C79.9176 14.4675 79.7659 14.8317 79.6748 15.2414C79.5838 15.6512 79.5383 16.0836 79.5383 16.5389C79.5383 17.0245 79.5914 17.4721 79.6976 17.8819C79.8038 18.2764 79.9632 18.6254 80.1756 18.9289C80.3881 19.2172 80.6688 19.4449 81.0178 19.6118C81.382 19.7635 81.8145 19.8394 82.3152 19.8394ZM92.9539 17.9274V22.5026H89.7444V6.38699H92.9539V15.1504H94.5472L97.1421 10.5069H100.807L97.2559 16.1975L101.08 22.5026H97.347L94.661 17.9274H92.9539ZM118.271 6.38699H122.095L116.769 14.4448L122.231 22.5026H118.385L114.743 16.9714L110.964 22.5026H107.254L112.785 14.422L107.436 6.38699H111.283L114.811 11.9637L118.271 6.38699Z" fill="#070707"/>
</svg>
