<svg width="80" height="80" viewBox="0 0 80 80" fill="none" xmlns="http://www.w3.org/2000/svg">
<mask id="mask0_4_26659" style="mask-type:alpha" maskUnits="userSpaceOnUse" x="0" y="0" width="80" height="80">
<rect width="80" height="80" fill="#F4F4F4"/>
</mask>
<g mask="url(#mask0_4_26659)">
<rect x="-0.304688" y="-26.3677" width="120.458" height="107.367" fill="#F4F4F4"/>
<path d="M25.3516 30.3994H28.9984C29.7055 30.3994 30.4011 30.2351 31.0203 29.9218C31.6394 29.6085 32.162 29.1564 32.5391 28.6077L34.029 26.4372C34.4062 25.8885 34.9287 25.4364 35.5479 25.123C36.167 24.8097 36.8626 24.6454 37.5698 24.6455H42.4302C43.1374 24.6454 43.833 24.8097 44.4521 25.123C45.0713 25.4364 45.5938 25.8885 45.971 26.4372L47.4609 28.6077C47.838 29.1564 48.3606 29.6085 48.9797 29.9218C49.5989 30.2351 50.2945 30.3994 51.0016 30.3994H54.6484C55.7584 30.3994 56.8229 30.8039 57.6078 31.5239C58.3927 32.2439 58.8336 33.2204 58.8336 34.2387V51.3671C58.8307 52.4239 58.3717 53.4366 57.5571 54.1839C56.7425 54.9312 55.6385 55.3522 54.4865 55.3549H25.5135C24.3614 55.3522 23.2575 54.9312 22.4429 54.1839C21.6283 53.4366 21.1693 52.4239 21.1664 51.3671V34.2387C21.1664 33.2204 21.6073 32.2439 22.3922 31.5239C23.1771 30.8039 24.2416 30.3994 25.3516 30.3994V30.3994Z" stroke="#070707" stroke-width="2.5" stroke-linecap="round" stroke-linejoin="round"/>
<path d="M40.0001 47.6766C43.1806 47.6766 45.759 45.0983 45.759 41.9177C45.759 38.7371 43.1806 36.1587 40.0001 36.1587C36.8195 36.1587 34.2411 38.7371 34.2411 41.9177C34.2411 45.0983 36.8195 47.6766 40.0001 47.6766Z" stroke="#070707" stroke-width="2.5" stroke-linecap="round" stroke-linejoin="round"/>
</g>
</svg>
