<svg width="56" height="46" viewBox="0 0 56 46" fill="none" xmlns="http://www.w3.org/2000/svg">
<path d="M7.79158 9.43488H12.838C13.8165 9.43497 14.7791 9.20762 15.6359 8.77406C16.4927 8.34049 17.2158 7.71486 17.7377 6.95554L19.7995 3.952C20.3213 3.19268 21.0444 2.56704 21.9012 2.13348C22.758 1.69992 23.7206 1.47257 24.6991 1.47266H31.4251C32.4036 1.47257 33.3662 1.69992 34.223 2.13348C35.0798 2.56704 35.8029 3.19268 36.3248 3.952L38.3866 6.95554C38.9085 7.71486 39.6315 8.34049 40.4883 8.77406C41.3452 9.20762 42.3077 9.43497 43.2863 9.43488H48.3327C49.8687 9.43488 51.3418 9.99463 52.4279 10.991C53.5141 11.9873 54.1242 13.3387 54.1242 14.7478V38.4503C54.1202 39.9126 53.4851 41.3141 52.3578 42.3481C51.2306 43.3822 49.7029 43.9648 48.1087 43.9686H8.01552C6.42136 43.9648 4.89366 43.3822 3.76641 42.3481C2.63916 41.3141 2.00408 39.9126 2 38.4503V14.7478C2 13.3387 2.61018 11.9873 3.69631 10.991C4.78245 9.99463 6.25556 9.43488 7.79158 9.43488V9.43488Z" stroke="#070707" stroke-width="2.5" stroke-linecap="round" stroke-linejoin="round"/>
<path d="M28.0622 33.3429C32.4635 33.3429 36.0315 29.7749 36.0315 25.3736C36.0315 20.9723 32.4635 17.4043 28.0622 17.4043C23.6609 17.4043 20.0929 20.9723 20.0929 25.3736C20.0929 29.7749 23.6609 33.3429 28.0622 33.3429Z" stroke="#070707" stroke-width="2.5" stroke-linecap="round" stroke-linejoin="round"/>
</svg>
