<svg width="1316" height="194" viewBox="0 0 1316 194" fill="none" xmlns="http://www.w3.org/2000/svg">
<g clip-path="url(#clip0_4423_24886)">
<rect width="1317" height="194" fill="#F4F4F4"/>
<path opacity="0.08" d="M1316 193.367L-5.96046e-06 1.26797" stroke="white"/>
<path opacity="0.1" d="M4.09814 188.907L1311.35 4.98655" stroke="#070707"/>
<path opacity="0.1" d="M1310.86 188.907L3.61046 4.98655" stroke="#070707"/>
<rect x="563.234" y="1.26984" width="189.53" height="192.384" fill="#F4F4F4"/>
<path d="M614.84 84.6672L613.8 81.8072H607.38L606.32 84.6672H603.8L609.16 70.5272H612.04L617.38 84.6672H614.84ZM613.08 79.7272L610.6 72.8072L608.1 79.7272H613.08ZM620.329 70.5272H625.449C626.569 70.5272 627.556 70.6939 628.409 71.0272C629.276 71.3472 629.996 71.8139 630.569 72.4272C631.156 73.0272 631.596 73.7672 631.889 74.6472C632.183 75.5272 632.329 76.5139 632.329 77.6072C632.329 78.7139 632.183 79.7005 631.889 80.5672C631.596 81.4339 631.163 82.1739 630.589 82.7872C630.029 83.4005 629.323 83.8672 628.469 84.1872C627.629 84.5072 626.649 84.6672 625.529 84.6672H620.329V70.5272ZM622.649 72.6072V82.6072H625.469C626.243 82.6072 626.909 82.4872 627.469 82.2472C628.029 82.0072 628.489 81.6739 628.849 81.2472C629.223 80.8072 629.496 80.2805 629.669 79.6672C629.856 79.0539 629.949 78.3672 629.949 77.6072C629.949 76.0339 629.563 74.8072 628.789 73.9272C628.029 73.0472 626.916 72.6072 625.449 72.6072H622.649ZM647.572 72.4072C647.265 72.4072 646.952 72.4339 646.632 72.4872C646.312 72.5405 646.018 72.6405 645.752 72.7872C645.485 72.9205 645.265 73.1139 645.092 73.3672C644.918 73.6072 644.832 73.9139 644.832 74.2872C644.832 74.8472 645.018 75.2739 645.392 75.5672C645.765 75.8472 646.212 76.0605 646.732 76.2072C647.105 76.3139 647.478 76.4139 647.852 76.5072C648.238 76.6005 648.592 76.6805 648.912 76.7472C649.472 76.8672 649.998 77.0139 650.492 77.1872C650.998 77.3605 651.438 77.5939 651.812 77.8872C652.185 78.1672 652.478 78.5272 652.692 78.9672C652.918 79.3939 653.032 79.9272 653.032 80.5672C653.032 81.3272 652.892 81.9739 652.612 82.5072C652.345 83.0405 651.978 83.4805 651.512 83.8272C651.045 84.1739 650.498 84.4272 649.872 84.5872C649.245 84.7472 648.572 84.8272 647.852 84.8272C647.118 84.8272 646.418 84.7539 645.752 84.6072C645.098 84.4472 644.512 84.2005 643.992 83.8672C643.472 83.5205 643.038 83.0805 642.692 82.5472C642.345 82.0139 642.125 81.3739 642.032 80.6272H644.432C644.538 81.0272 644.712 81.3605 644.952 81.6272C645.192 81.8939 645.465 82.1072 645.772 82.2672C646.092 82.4272 646.432 82.5405 646.792 82.6072C647.152 82.6739 647.505 82.7072 647.852 82.7072C648.225 82.7072 648.585 82.6805 648.932 82.6272C649.278 82.5605 649.578 82.4539 649.832 82.3072C650.085 82.1605 650.292 81.9672 650.452 81.7272C650.612 81.4872 650.692 81.1739 650.692 80.7872C650.692 80.2539 650.552 79.8672 650.272 79.6272C649.992 79.3739 649.618 79.1872 649.152 79.0672C648.512 78.8805 647.852 78.7205 647.172 78.5872C646.505 78.4405 645.872 78.2539 645.272 78.0272C644.872 77.8805 644.505 77.7072 644.172 77.5072C643.838 77.3072 643.545 77.0672 643.292 76.7872C643.038 76.5072 642.838 76.1805 642.692 75.8072C642.558 75.4205 642.492 74.9739 642.492 74.4672C642.492 73.6939 642.638 73.0472 642.932 72.5272C643.225 71.9939 643.605 71.5672 644.072 71.2472C644.552 70.9272 645.092 70.7005 645.692 70.5672C646.292 70.4205 646.905 70.3472 647.532 70.3472C648.198 70.3472 648.832 70.4272 649.432 70.5872C650.032 70.7339 650.565 70.9672 651.032 71.2872C651.498 71.6072 651.872 72.0205 652.152 72.5272C652.445 73.0339 652.618 73.6472 652.672 74.3672H650.392C650.338 74.0072 650.225 73.7072 650.052 73.4672C649.892 73.2272 649.685 73.0339 649.432 72.8872C649.192 72.7272 648.912 72.6139 648.592 72.5472C648.272 72.4672 647.932 72.4205 647.572 72.4072ZM656.937 70.5272H662.117C662.931 70.5272 663.657 70.6205 664.297 70.8072C664.951 70.9805 665.504 71.2605 665.957 71.6472C666.424 72.0339 666.777 72.5339 667.017 73.1472C667.271 73.7472 667.397 74.4739 667.397 75.3272C667.397 76.1139 667.264 76.8139 666.997 77.4272C666.744 78.0405 666.377 78.5539 665.897 78.9672C665.431 79.3805 664.871 79.6939 664.217 79.9072C663.564 80.1205 662.837 80.2272 662.037 80.2272H659.257V84.6672H656.937V70.5272ZM661.917 78.1872C662.811 78.1872 663.551 77.9672 664.137 77.5272C664.737 77.0739 665.051 76.3739 665.077 75.4272C665.077 74.4272 664.817 73.7072 664.297 73.2672C663.791 72.8272 663.044 72.6072 662.057 72.6072H659.257V78.1872H661.917ZM679.629 84.6672L678.589 81.8072H672.169L671.109 84.6672H668.589L673.949 70.5272H676.829L682.169 84.6672H679.629ZM677.869 79.7272L675.389 72.8072L672.889 79.7272H677.869ZM690.647 72.4272C689.9 72.4272 689.254 72.5672 688.707 72.8472C688.174 73.1272 687.734 73.5005 687.387 73.9672C687.04 74.4339 686.78 74.9805 686.607 75.6072C686.447 76.2205 686.367 76.8672 686.367 77.5472C686.367 78.2405 686.454 78.9005 686.627 79.5272C686.8 80.1539 687.06 80.7072 687.407 81.1872C687.767 81.6539 688.22 82.0272 688.767 82.3072C689.314 82.5872 689.96 82.7272 690.707 82.7272C691.627 82.7272 692.394 82.5272 693.007 82.1272C693.634 81.7272 694.027 81.1872 694.187 80.5072H696.507C696.4 81.1872 696.174 81.7939 695.827 82.3272C695.494 82.8605 695.074 83.3139 694.567 83.6872C694.06 84.0472 693.474 84.3272 692.807 84.5272C692.14 84.7139 691.427 84.8072 690.667 84.8072C689.56 84.8072 688.587 84.6272 687.747 84.2672C686.92 83.9072 686.227 83.4072 685.667 82.7672C685.107 82.1272 684.687 81.3672 684.407 80.4872C684.127 79.6072 683.987 78.6405 683.987 77.5872C683.987 76.5605 684.127 75.6072 684.407 74.7272C684.7 73.8339 685.127 73.0672 685.687 72.4272C686.247 71.7739 686.94 71.2672 687.767 70.9072C688.607 70.5339 689.58 70.3472 690.687 70.3472C692.247 70.3472 693.534 70.7139 694.547 71.4472C695.56 72.1805 696.174 73.2605 696.387 74.6872H694.107C693.934 73.9939 693.547 73.4472 692.947 73.0472C692.347 72.6339 691.58 72.4272 690.647 72.4272ZM700.088 70.5272H709.908V72.6072H702.408V76.6272H709.048V78.7272H702.408V82.6072H709.908V84.6672H700.088V70.5272Z" fill="#525252"/>
<path d="M606.123 118.763H604.267V110.059H601.963V108.795C602.592 108.774 603.147 108.672 603.627 108.491C604.107 108.299 604.485 107.952 604.763 107.451H606.123V118.763ZM613.416 118.875C612.893 118.875 612.392 118.822 611.912 118.715C611.432 118.598 611 118.422 610.616 118.187C610.243 117.942 609.923 117.627 609.656 117.243C609.4 116.859 609.235 116.395 609.16 115.851H611.032C611.117 116.128 611.245 116.352 611.416 116.523C611.587 116.694 611.779 116.832 611.992 116.939C612.216 117.046 612.451 117.12 612.696 117.163C612.941 117.195 613.181 117.211 613.416 117.211C613.661 117.211 613.917 117.19 614.184 117.147C614.451 117.094 614.691 117.003 614.904 116.875C615.128 116.747 615.309 116.571 615.448 116.347C615.597 116.112 615.672 115.808 615.672 115.435C615.672 115.094 615.603 114.816 615.464 114.603C615.336 114.39 615.16 114.224 614.936 114.107C614.723 113.99 614.477 113.91 614.2 113.867C613.933 113.824 613.661 113.803 613.384 113.803H612.264V112.235H612.92C613.176 112.235 613.443 112.208 613.72 112.155C613.997 112.102 614.248 112.011 614.472 111.883C614.707 111.755 614.893 111.584 615.032 111.371C615.181 111.158 615.256 110.891 615.256 110.571C615.256 110.262 615.203 110.006 615.096 109.803C614.989 109.59 614.845 109.424 614.664 109.307C614.483 109.179 614.275 109.094 614.04 109.051C613.816 108.998 613.576 108.971 613.32 108.971C612.883 108.971 612.472 109.072 612.088 109.275C611.704 109.467 611.453 109.808 611.336 110.299H609.512C609.576 109.776 609.72 109.328 609.944 108.955C610.168 108.571 610.456 108.262 610.808 108.027C611.16 107.782 611.555 107.6 611.992 107.483C612.44 107.366 612.909 107.307 613.4 107.307C613.88 107.307 614.339 107.36 614.776 107.467C615.224 107.574 615.619 107.744 615.96 107.979C616.301 108.214 616.573 108.523 616.776 108.907C616.979 109.28 617.08 109.739 617.08 110.283C617.08 110.731 616.968 111.174 616.744 111.611C616.531 112.048 616.131 112.416 615.544 112.715C616.216 112.896 616.717 113.227 617.048 113.707C617.379 114.176 617.544 114.747 617.544 115.419C617.544 116.038 617.427 116.566 617.192 117.003C616.968 117.43 616.669 117.787 616.296 118.075C615.933 118.352 615.501 118.555 615 118.683C614.499 118.811 613.971 118.875 613.416 118.875ZM623.808 118.763H621.952V110.059H619.648V108.795C620.278 108.774 620.832 108.672 621.312 108.491C621.792 108.299 622.171 107.952 622.448 107.451H623.808V118.763ZM629.006 112.779C629.358 112.331 629.779 112 630.27 111.787C630.76 111.574 631.283 111.467 631.838 111.467C632.392 111.467 632.899 111.552 633.358 111.723C633.816 111.894 634.206 112.134 634.526 112.443C634.846 112.752 635.091 113.136 635.262 113.595C635.443 114.043 635.534 114.544 635.534 115.099C635.534 115.664 635.432 116.176 635.23 116.635C635.038 117.094 634.766 117.488 634.414 117.819C634.062 118.15 633.651 118.406 633.182 118.587C632.712 118.768 632.206 118.859 631.662 118.859C630.851 118.859 630.163 118.715 629.598 118.427C629.043 118.128 628.59 117.739 628.238 117.259C627.896 116.768 627.646 116.203 627.486 115.563C627.336 114.912 627.256 114.235 627.246 113.531C627.246 113.051 627.272 112.571 627.326 112.091C627.39 111.611 627.486 111.152 627.614 110.715C627.752 110.267 627.928 109.846 628.142 109.451C628.366 109.056 628.638 108.704 628.958 108.395C629.299 108.064 629.71 107.803 630.19 107.611C630.67 107.419 631.219 107.323 631.838 107.323C632.766 107.323 633.56 107.552 634.222 108.011C634.883 108.47 635.304 109.174 635.486 110.123H633.63C633.48 109.728 633.235 109.44 632.894 109.259C632.552 109.067 632.179 108.971 631.774 108.971C631.432 108.971 631.118 109.03 630.83 109.147C630.552 109.264 630.307 109.43 630.094 109.643C629.902 109.835 629.736 110.054 629.598 110.299C629.459 110.544 629.347 110.806 629.262 111.083C629.176 111.36 629.112 111.643 629.07 111.931C629.027 112.219 629.006 112.502 629.006 112.779ZM633.678 115.227C633.678 114.587 633.486 114.075 633.102 113.691C632.728 113.296 632.222 113.099 631.582 113.099C631.283 113.099 631 113.152 630.734 113.259C630.478 113.355 630.248 113.494 630.046 113.675C629.854 113.856 629.699 114.075 629.582 114.331C629.475 114.587 629.422 114.864 629.422 115.163C629.422 115.44 629.475 115.707 629.582 115.963C629.688 116.208 629.838 116.427 630.03 116.619C630.222 116.8 630.446 116.95 630.702 117.067C630.968 117.174 631.256 117.227 631.566 117.227C632.184 117.227 632.691 117.046 633.086 116.683C633.48 116.31 633.678 115.824 633.678 115.227ZM650.184 107.451H652.36L648.728 113.083L652.472 118.763H650.28L647.576 114.555L644.808 118.763H642.696L646.456 113.099L642.808 107.451H645.016L647.608 111.659L650.184 107.451ZM663.327 118.763H661.471V110.059H659.167V108.795C659.796 108.774 660.351 108.672 660.831 108.491C661.311 108.299 661.69 107.952 661.967 107.451H663.327V118.763ZM673.244 113.355C673.084 113.6 672.898 113.808 672.684 113.979C672.471 114.15 672.236 114.294 671.98 114.411C671.735 114.518 671.474 114.598 671.196 114.651C670.919 114.704 670.642 114.731 670.364 114.731C669.831 114.731 669.34 114.651 668.892 114.491C668.455 114.32 668.071 114.08 667.74 113.771C667.41 113.462 667.154 113.083 666.972 112.635C666.791 112.187 666.7 111.68 666.7 111.115C666.7 110.539 666.802 110.016 667.004 109.547C667.218 109.078 667.5 108.683 667.852 108.363C668.215 108.032 668.636 107.782 669.116 107.611C669.607 107.43 670.135 107.339 670.7 107.339C671.49 107.328 672.172 107.504 672.748 107.867C673.335 108.219 673.783 108.667 674.092 109.211C674.412 109.744 674.636 110.358 674.764 111.051C674.903 111.734 674.983 112.422 675.004 113.115C675.004 113.84 674.935 114.55 674.796 115.243C674.658 115.936 674.418 116.555 674.076 117.099C673.746 117.632 673.298 118.064 672.732 118.395C672.167 118.715 671.458 118.875 670.604 118.875C670.135 118.875 669.687 118.822 669.26 118.715C668.844 118.598 668.466 118.427 668.124 118.203C667.783 117.968 667.495 117.68 667.26 117.339C667.026 116.987 666.871 116.571 666.796 116.091H668.7C668.839 116.475 669.09 116.763 669.452 116.955C669.815 117.136 670.199 117.227 670.604 117.227C670.924 117.227 671.207 117.184 671.452 117.099C671.698 117.003 671.916 116.88 672.108 116.731C672.3 116.582 672.466 116.406 672.604 116.203C672.743 115.99 672.855 115.766 672.94 115.531C673.079 115.179 673.164 114.822 673.196 114.459C673.228 114.086 673.244 113.718 673.244 113.355ZM668.556 111.003C668.556 111.654 668.743 112.166 669.116 112.539C669.5 112.912 670.012 113.099 670.652 113.099C670.94 113.099 671.212 113.056 671.468 112.971C671.735 112.875 671.964 112.747 672.156 112.587C672.348 112.416 672.498 112.214 672.604 111.979C672.722 111.734 672.786 111.467 672.796 111.179C672.796 110.88 672.748 110.598 672.652 110.331C672.556 110.064 672.418 109.835 672.236 109.643C672.055 109.44 671.831 109.28 671.564 109.163C671.308 109.046 671.02 108.987 670.7 108.987C670.082 108.987 669.57 109.168 669.164 109.531C668.77 109.894 668.567 110.384 668.556 111.003ZM685.055 107.451V114.955H686.351V116.587H685.055V118.763H683.215V116.587H677.375V115.259L682.671 107.451H685.055ZM679.519 114.955H683.215V109.419L679.519 114.955ZM694.405 107.451H698.549C699.2 107.451 699.781 107.526 700.293 107.675C700.816 107.814 701.259 108.038 701.621 108.347C701.995 108.656 702.277 109.056 702.469 109.547C702.672 110.027 702.773 110.608 702.773 111.291C702.773 111.92 702.667 112.48 702.453 112.971C702.251 113.462 701.957 113.872 701.573 114.203C701.2 114.534 700.752 114.784 700.229 114.955C699.707 115.126 699.125 115.211 698.485 115.211H696.261V118.763H694.405V107.451ZM698.389 113.579C699.104 113.579 699.696 113.403 700.165 113.051C700.645 112.688 700.896 112.128 700.917 111.371C700.917 110.571 700.709 109.995 700.293 109.643C699.888 109.291 699.291 109.115 698.501 109.115H696.261V113.579H698.389ZM711.67 107.451H713.846L710.214 113.083L713.958 118.763H711.766L709.062 114.555L706.294 118.763H704.182L707.942 113.099L704.294 107.451H706.502L709.094 111.659L711.67 107.451Z" fill="#525252"/>
</g>
<defs>
<clipPath id="clip0_4423_24886">
<rect width="1316" height="194" fill="white"/>
</clipPath>
</defs>
</svg>
