<svg width="222" height="222" viewBox="0 0 222 222" fill="none" xmlns="http://www.w3.org/2000/svg">
<g clip-path="url(#clip0_4423_24873)">
<rect width="222" height="222" fill="white"/>
<rect width="222" height="222" fill="#F4F4F4"/>
<path opacity="0.2" d="M0 222L222 9.15527e-05" stroke="#070707" stroke-width="0.73913"/>
<path opacity="0.2" d="M222 222L-1.48984e-06 -3.05176e-05" stroke="#070707" stroke-width="0.73913"/>
<rect x="70.2263" y="70.4378" width="80.3161" height="80.3161" fill="#F4F4F4"/>
<path d="M73.3573 107.129H71.6355L75.5043 96.3778H77.3784L81.2473 107.129H79.5255L76.486 98.3306H76.402L73.3573 107.129ZM73.646 102.919H79.2315V104.284H73.646V102.919ZM87.1672 107.129H83.6868V96.3778H87.2775C88.3309 96.3778 89.2355 96.5931 89.9915 97.0235C90.7474 97.4505 91.3266 98.0647 91.729 98.8661C92.135 99.664 92.338 100.621 92.338 101.738C92.338 102.857 92.1333 103.82 91.7238 104.625C91.3178 105.43 90.7299 106.049 89.96 106.483C89.19 106.914 88.2591 107.129 87.1672 107.129ZM85.3089 105.711H87.078C87.8969 105.711 88.5776 105.557 89.12 105.249C89.6625 104.938 90.0684 104.488 90.3379 103.9C90.6074 103.309 90.7421 102.588 90.7421 101.738C90.7421 100.894 90.6074 100.178 90.3379 99.5905C90.0719 99.0026 89.6747 98.5564 89.1463 98.2519C88.6178 97.9474 87.9616 97.7952 87.1777 97.7952H85.3089V105.711ZM105.905 99.2021C105.849 98.7051 105.618 98.3201 105.212 98.0472C104.806 97.7707 104.295 97.6325 103.679 97.6325C103.238 97.6325 102.857 97.7025 102.535 97.8424C102.213 97.9789 101.963 98.1679 101.784 98.4094C101.609 98.6474 101.522 98.9186 101.522 99.2231C101.522 99.4785 101.581 99.699 101.7 99.8845C101.823 100.07 101.982 100.226 102.178 100.352C102.377 100.474 102.591 100.577 102.818 100.661C103.046 100.742 103.264 100.808 103.474 100.861L104.524 101.134C104.867 101.218 105.219 101.332 105.579 101.475C105.94 101.619 106.274 101.808 106.582 102.042C106.89 102.277 107.139 102.567 107.328 102.913C107.52 103.26 107.616 103.675 107.616 104.158C107.616 104.767 107.459 105.307 107.144 105.78C106.832 106.252 106.379 106.625 105.784 106.898C105.193 107.171 104.477 107.307 103.637 107.307C102.832 107.307 102.136 107.18 101.548 106.924C100.96 106.669 100.5 106.306 100.167 105.837C99.8347 105.365 99.651 104.805 99.616 104.158H101.243C101.275 104.546 101.401 104.87 101.621 105.129C101.845 105.384 102.131 105.575 102.477 105.701C102.827 105.823 103.21 105.885 103.627 105.885C104.085 105.885 104.493 105.813 104.85 105.669C105.21 105.522 105.494 105.319 105.7 105.061C105.907 104.798 106.01 104.492 106.01 104.142C106.01 103.823 105.919 103.563 105.737 103.36C105.558 103.157 105.315 102.989 105.007 102.856C104.703 102.723 104.358 102.605 103.973 102.504L102.703 102.158C101.842 101.923 101.159 101.578 100.655 101.123C100.155 100.668 99.9047 100.066 99.9047 99.3175C99.9047 98.6981 100.073 98.1574 100.409 97.6955C100.745 97.2335 101.2 96.8748 101.774 96.6193C102.347 96.3603 102.995 96.2308 103.716 96.2308C104.444 96.2308 105.086 96.3586 105.642 96.6141C106.202 96.8695 106.643 97.2212 106.965 97.6692C107.287 98.1137 107.455 98.6246 107.469 99.2021H105.905ZM110.442 107.129V96.3778H114.274C115.11 96.3778 115.803 96.5301 116.353 96.8345C116.902 97.139 117.313 97.5555 117.586 98.0839C117.859 98.6089 117.996 99.2003 117.996 99.8582C117.996 100.52 117.857 101.115 117.581 101.643C117.308 102.168 116.895 102.584 116.342 102.892C115.793 103.197 115.101 103.349 114.268 103.349H111.633V101.974H114.121C114.65 101.974 115.079 101.883 115.408 101.701C115.737 101.515 115.978 101.263 116.132 100.945C116.286 100.626 116.363 100.264 116.363 99.8582C116.363 99.4523 116.286 99.0918 116.132 98.7769C115.978 98.4619 115.735 98.2152 115.402 98.0367C115.073 97.8582 114.639 97.7689 114.1 97.7689H112.064V107.129H110.442ZM120.552 107.129H118.83L122.699 96.3778H124.573L128.442 107.129H126.72L123.681 98.3306H123.597L120.552 107.129ZM120.841 102.919H126.426V104.284H120.841V102.919ZM139.306 99.874H137.668C137.605 99.524 137.487 99.2161 137.316 98.9501C137.145 98.6841 136.935 98.4584 136.686 98.2729C136.438 98.0874 136.159 97.9474 135.851 97.8529C135.547 97.7584 135.223 97.7112 134.88 97.7112C134.261 97.7112 133.706 97.8669 133.216 98.1784C132.73 98.4899 132.345 98.9466 132.061 99.5485C131.781 100.15 131.641 100.885 131.641 101.753C131.641 102.628 131.781 103.367 132.061 103.969C132.345 104.571 132.731 105.026 133.221 105.333C133.711 105.641 134.263 105.795 134.875 105.795C135.214 105.795 135.536 105.75 135.841 105.659C136.149 105.564 136.427 105.426 136.676 105.244C136.924 105.062 137.134 104.84 137.306 104.578C137.48 104.312 137.601 104.007 137.668 103.664L139.306 103.669C139.218 104.198 139.048 104.684 138.796 105.129C138.548 105.57 138.228 105.951 137.836 106.273C137.447 106.592 137.003 106.838 136.502 107.013C136.002 107.188 135.456 107.276 134.864 107.276C133.934 107.276 133.104 107.055 132.376 106.614C131.648 106.17 131.074 105.535 130.654 104.709C130.238 103.883 130.03 102.898 130.03 101.753C130.03 100.605 130.24 99.6203 130.66 98.7978C131.08 97.9719 131.654 97.3385 132.381 96.8975C133.109 96.4531 133.937 96.2308 134.864 96.2308C135.435 96.2308 135.967 96.3131 136.46 96.4776C136.957 96.6386 137.404 96.8765 137.799 97.1915C138.194 97.503 138.522 97.8844 138.781 98.3359C139.04 98.7838 139.215 99.2966 139.306 99.874ZM142.134 107.129V96.3778H148.874V97.7742H143.756V101.05H148.522V102.441H143.756V105.732H148.937V107.129H142.134Z" fill="#525252"/>
<path d="M75.0878 126.4C74.5832 126.4 74.1324 126.313 73.7356 126.139C73.3411 125.965 73.0288 125.724 72.7985 125.415C72.5707 125.104 72.4482 124.744 72.4311 124.335H73.5849C73.5996 124.558 73.6743 124.751 73.8091 124.915C73.9462 125.077 74.1251 125.202 74.3456 125.29C74.566 125.378 74.811 125.422 75.0805 125.422C75.3769 125.422 75.639 125.371 75.8669 125.268C76.0971 125.165 76.2772 125.022 76.407 124.838C76.5369 124.652 76.6018 124.438 76.6018 124.195C76.6018 123.943 76.5369 123.721 76.407 123.53C76.2796 123.336 76.0922 123.185 75.8448 123.074C75.5998 122.964 75.3034 122.909 74.9555 122.909H74.3198V121.983H74.9555C75.2348 121.983 75.4798 121.933 75.6905 121.832C75.9036 121.732 76.0702 121.592 76.1902 121.413C76.3103 121.232 76.3703 121.02 76.3703 120.778C76.3703 120.545 76.3176 120.343 76.2123 120.171C76.1094 119.997 75.9624 119.861 75.7713 119.763C75.5827 119.665 75.3598 119.616 75.1025 119.616C74.8576 119.616 74.6285 119.662 74.4154 119.752C74.2047 119.841 74.0332 119.968 73.9009 120.135C73.7686 120.299 73.6976 120.496 73.6878 120.726H72.5891C72.6013 120.319 72.7214 119.962 72.9492 119.653C73.1795 119.344 73.4832 119.103 73.8605 118.929C74.2378 118.755 74.6567 118.668 75.1172 118.668C75.5998 118.668 76.0163 118.763 76.3666 118.951C76.7194 119.137 76.9913 119.386 77.1824 119.697C77.3759 120.008 77.4715 120.349 77.469 120.719C77.4715 121.14 77.3539 121.498 77.1162 121.792C76.8811 122.086 76.5675 122.283 76.1755 122.383V122.442C76.6753 122.518 77.0623 122.717 77.3367 123.038C77.6135 123.358 77.7507 123.757 77.7483 124.232C77.7507 124.646 77.6356 125.017 77.4029 125.345C77.1726 125.673 76.8578 125.932 76.4585 126.121C76.0592 126.307 75.6023 126.4 75.0878 126.4ZM82.3782 126.422C81.7976 126.419 81.3015 126.266 80.89 125.963C80.4784 125.659 80.1636 125.217 79.9456 124.636C79.7276 124.055 79.6185 123.356 79.6185 122.538C79.6185 121.722 79.7276 121.025 79.9456 120.447C80.1661 119.869 80.4821 119.428 80.8936 119.124C81.3077 118.82 81.8025 118.668 82.3782 118.668C82.9539 118.668 83.4475 118.821 83.8591 119.128C84.2706 119.431 84.5854 119.872 84.8035 120.451C85.024 121.026 85.1342 121.722 85.1342 122.538C85.1342 123.358 85.0252 124.059 84.8071 124.64C84.5891 125.218 84.2743 125.66 83.8628 125.966C83.4512 126.27 82.9563 126.422 82.3782 126.422ZM82.3782 125.441C82.8878 125.441 83.2858 125.192 83.5725 124.695C83.8615 124.197 84.0061 123.478 84.0061 122.538C84.0061 121.913 83.9399 121.385 83.8076 120.954C83.6778 120.52 83.4904 120.192 83.2454 119.969C83.0029 119.744 82.7138 119.631 82.3782 119.631C81.8711 119.631 81.473 119.881 81.1839 120.381C80.8949 120.88 80.7491 121.6 80.7467 122.538C80.7467 123.165 80.8116 123.695 80.9414 124.129C81.0737 124.56 81.2611 124.887 81.5036 125.11C81.7462 125.331 82.0377 125.441 82.3782 125.441ZM89.6787 126.422C89.0981 126.419 88.602 126.266 88.1904 125.963C87.7789 125.659 87.4641 125.217 87.2461 124.636C87.028 124.055 86.919 123.356 86.919 122.538C86.919 121.722 87.028 121.025 87.2461 120.447C87.4665 119.869 87.7826 119.428 88.1941 119.124C88.6081 118.82 89.103 118.668 89.6787 118.668C90.2544 118.668 90.748 118.821 91.1596 119.128C91.5711 119.431 91.8859 119.872 92.1039 120.451C92.3244 121.026 92.4347 121.722 92.4347 122.538C92.4347 123.358 92.3257 124.059 92.1076 124.64C91.8896 125.218 91.5748 125.66 91.1632 125.966C90.7517 126.27 90.2568 126.422 89.6787 126.422ZM89.6787 125.441C90.1882 125.441 90.5863 125.192 90.8729 124.695C91.162 124.197 91.3065 123.478 91.3065 122.538C91.3065 121.913 91.2404 121.385 91.1081 120.954C90.9783 120.52 90.7909 120.192 90.5459 119.969C90.3034 119.744 90.0143 119.631 89.6787 119.631C89.1716 119.631 88.7735 119.881 88.4844 120.381C88.1953 120.88 88.0496 121.6 88.0471 122.538C88.0471 123.165 88.112 123.695 88.2419 124.129C88.3742 124.56 88.5616 124.887 88.8041 125.11C89.0466 125.331 89.3382 125.441 89.6787 125.441ZM98.6115 118.771L100.412 121.715H100.471L102.271 118.771H103.587L101.243 122.534L103.602 126.297H102.279L100.471 123.394H100.412L98.6041 126.297H97.2812L99.6808 122.534L97.2959 118.771H98.6115ZM111.211 126.4C110.706 126.4 110.255 126.313 109.858 126.139C109.464 125.965 109.152 125.724 108.921 125.415C108.694 125.104 108.571 124.744 108.554 124.335H109.708C109.722 124.558 109.797 124.751 109.932 124.915C110.069 125.077 110.248 125.202 110.468 125.29C110.689 125.378 110.934 125.422 111.203 125.422C111.5 125.422 111.762 125.371 111.99 125.268C112.22 125.165 112.4 125.022 112.53 124.838C112.66 124.652 112.725 124.438 112.725 124.195C112.725 123.943 112.66 123.721 112.53 123.53C112.402 123.336 112.215 123.185 111.968 123.074C111.723 122.964 111.426 122.909 111.078 122.909H110.443V121.983H111.078C111.358 121.983 111.603 121.933 111.813 121.832C112.026 121.732 112.193 121.592 112.313 121.413C112.433 121.232 112.493 121.02 112.493 120.778C112.493 120.545 112.44 120.343 112.335 120.171C112.232 119.997 112.085 119.861 111.894 119.763C111.705 119.665 111.483 119.616 111.225 119.616C110.98 119.616 110.751 119.662 110.538 119.752C110.328 119.841 110.156 119.968 110.024 120.135C109.891 120.299 109.82 120.496 109.811 120.726H108.712C108.724 120.319 108.844 119.962 109.072 119.653C109.302 119.344 109.606 119.103 109.983 118.929C110.361 118.755 110.779 118.668 111.24 118.668C111.723 118.668 112.139 118.763 112.489 118.951C112.842 119.137 113.114 119.386 113.305 119.697C113.499 120.008 113.594 120.349 113.592 120.719C113.594 121.14 113.477 121.498 113.239 121.792C113.004 122.086 112.69 122.283 112.298 122.383V122.442C112.798 122.518 113.185 122.717 113.46 123.038C113.736 123.358 113.874 123.757 113.871 124.232C113.874 124.646 113.758 125.017 113.526 125.345C113.295 125.673 112.981 125.932 112.581 126.121C112.182 126.307 111.725 126.4 111.211 126.4ZM118.501 126.422C117.92 126.419 117.424 126.266 117.013 125.963C116.601 125.659 116.286 125.217 116.068 124.636C115.85 124.055 115.741 123.356 115.741 122.538C115.741 121.722 115.85 121.025 116.068 120.447C116.289 119.869 116.605 119.428 117.016 119.124C117.43 118.82 117.925 118.668 118.501 118.668C119.077 118.668 119.57 118.821 119.982 119.128C120.393 119.431 120.708 119.872 120.926 120.451C121.147 121.026 121.257 121.722 121.257 122.538C121.257 123.358 121.148 124.059 120.93 124.64C120.712 125.218 120.397 125.66 119.986 125.966C119.574 126.27 119.079 126.422 118.501 126.422ZM118.501 125.441C119.011 125.441 119.409 125.192 119.695 124.695C119.984 124.197 120.129 123.478 120.129 122.538C120.129 121.913 120.063 121.385 119.93 120.954C119.801 120.52 119.613 120.192 119.368 119.969C119.126 119.744 118.837 119.631 118.501 119.631C117.994 119.631 117.596 119.881 117.307 120.381C117.018 120.88 116.872 121.6 116.869 122.538C116.869 123.165 116.934 123.695 117.064 124.129C117.197 124.56 117.384 124.887 117.626 125.11C117.869 125.331 118.16 125.441 118.501 125.441ZM125.801 126.422C125.221 126.419 124.725 126.266 124.313 125.963C123.902 125.659 123.587 125.217 123.369 124.636C123.151 124.055 123.042 123.356 123.042 122.538C123.042 121.722 123.151 121.025 123.369 120.447C123.589 119.869 123.905 119.428 124.317 119.124C124.731 118.82 125.226 118.668 125.801 118.668C126.377 118.668 126.871 118.821 127.282 119.128C127.694 119.431 128.009 119.872 128.227 120.451C128.447 121.026 128.557 121.722 128.557 122.538C128.557 123.358 128.448 124.059 128.23 124.64C128.012 125.218 127.698 125.66 127.286 125.966C126.874 126.27 126.38 126.422 125.801 126.422ZM125.801 125.441C126.311 125.441 126.709 125.192 126.996 124.695C127.285 124.197 127.429 123.478 127.429 122.538C127.429 121.913 127.363 121.385 127.231 120.954C127.101 120.52 126.914 120.192 126.669 119.969C126.426 119.744 126.137 119.631 125.801 119.631C125.294 119.631 124.896 119.881 124.607 120.381C124.318 120.88 124.172 121.6 124.17 122.538C124.17 123.165 124.235 123.695 124.365 124.129C124.497 124.56 124.684 124.887 124.927 125.11C125.169 125.331 125.461 125.441 125.801 125.441ZM133.944 126.297V118.771H136.627C137.212 118.771 137.697 118.878 138.082 119.091C138.466 119.304 138.754 119.596 138.945 119.966C139.137 120.333 139.232 120.747 139.232 121.208C139.232 121.671 139.135 122.087 138.942 122.457C138.751 122.824 138.462 123.116 138.075 123.331C137.69 123.545 137.206 123.651 136.623 123.651H134.778V122.688H136.52C136.89 122.688 137.19 122.625 137.42 122.497C137.651 122.368 137.82 122.191 137.928 121.968C138.035 121.745 138.089 121.492 138.089 121.208C138.089 120.923 138.035 120.671 137.928 120.451C137.82 120.23 137.649 120.057 137.417 119.932C137.186 119.807 136.883 119.745 136.505 119.745H135.08V126.297H133.944ZM141.974 118.771L143.775 121.715H143.833L145.634 118.771H146.95L144.605 122.534L146.964 126.297H145.641L143.833 123.394H143.775L141.967 126.297H140.644L143.043 122.534L140.659 118.771H141.974Z" fill="#525252"/>
</g>
<defs>
<clipPath id="clip0_4423_24873">
<rect width="222" height="222" fill="white"/>
</clipPath>
</defs>
</svg>
