<svg width="152" height="38" viewBox="0 0 152 38" fill="none" xmlns="http://www.w3.org/2000/svg">
<path d="M0.677368 13.4846L8.96679 6.51904H37.4617V33.9778H0.677368V13.4846Z" fill="#08080C"/>
<circle cx="27.8035" cy="11.4511" r="1.61421" fill="white"/>
<circle cx="19.0696" cy="20.8959" r="7.30259" fill="white" stroke="white" stroke-width="1.97367"/>
<rect x="23.6184" y="4.20361" width="8.98611" height="2.31521" fill="#08080C"/>
<path d="M58.6915 13.9656C58.5794 13.1249 58.2057 12.527 57.5705 12.172C56.9352 11.7983 56.1411 11.5928 55.1882 11.5554C54.8519 11.5554 54.4969 11.5834 54.1233 11.6395C53.7683 11.6955 53.4319 11.8076 53.1143 11.9758C52.7967 12.1439 52.5351 12.3681 52.3296 12.6484C52.1241 12.9287 52.0213 13.2743 52.0213 13.6854C52.0026 14.1151 52.1054 14.4795 52.3296 14.7784C52.5725 15.0773 52.8901 15.3202 53.2825 15.5071C53.5627 15.6379 53.8617 15.7593 54.1793 15.8714C54.5156 15.9648 54.8426 16.0583 55.1602 16.1517C55.4779 16.2264 55.7861 16.2918 56.0851 16.3479C56.384 16.4039 56.6456 16.46 56.8698 16.516C57.6732 16.6842 58.4486 16.8804 59.196 17.1046C59.9434 17.3288 60.6066 17.6371 61.1858 18.0294C61.7651 18.4218 62.2322 18.945 62.5872 19.5989C62.9422 20.2528 63.129 21.103 63.1477 22.1493C63.1477 23.289 62.9328 24.2606 62.5031 25.064C62.0733 25.8674 61.4941 26.512 60.7655 26.9978C60.0741 27.4836 59.2707 27.8386 58.3552 28.0628C57.4397 28.2683 56.4307 28.3524 55.3284 28.315C54.2634 28.2963 53.2638 28.1562 52.3296 27.8946C51.3954 27.6144 50.5639 27.2127 49.8353 26.6895C49.1253 26.1664 48.5554 25.5124 48.1257 24.7277C47.6959 23.9429 47.453 23.0181 47.397 21.9531H51.5448C51.657 22.4389 51.8438 22.8406 52.1054 23.1582C52.3669 23.4758 52.6752 23.7374 53.0302 23.9429C53.3852 24.1485 53.7776 24.2979 54.2073 24.3914C54.6558 24.4848 55.1042 24.5408 55.5526 24.5595C56.0197 24.5782 56.4681 24.5595 56.8978 24.5035C57.3276 24.4474 57.7013 24.3447 58.0189 24.1952C58.3552 24.027 58.6168 23.8028 58.8036 23.5226C58.9905 23.2423 59.0839 22.8873 59.0839 22.4576C59.0839 21.8597 58.897 21.4206 58.5234 21.1403C58.1684 20.8601 57.776 20.6639 57.3463 20.5518C57.0473 20.477 56.7764 20.4117 56.5335 20.3556C56.3093 20.2809 56.0851 20.2248 55.8609 20.1874C55.6367 20.1314 55.4031 20.0753 55.1602 20.0193C54.9173 19.9632 54.6371 19.8978 54.3194 19.8231C53.6094 19.6363 52.8714 19.4307 52.1054 19.2065C51.358 18.9636 50.6854 18.6273 50.0875 18.1976C49.3588 17.6931 48.8076 17.0485 48.4339 16.2638C48.0789 15.479 47.9201 14.6102 47.9575 13.6573C48.0136 12.5363 48.2751 11.6114 48.7422 10.8828C49.2093 10.1354 49.8072 9.54685 50.5359 9.11711C51.2646 8.68738 52.068 8.38843 52.9462 8.22027C53.8243 8.05212 54.7025 7.97738 55.5806 7.99607C56.5522 8.01475 57.449 8.15488 58.2711 8.41646C59.1119 8.65935 59.8406 9.02369 60.4572 9.50948C61.0924 9.99527 61.6062 10.6118 61.9986 11.3592C62.391 12.1066 62.6339 12.9754 62.7273 13.9656H58.6915ZM73.1666 24.7837C73.4655 24.7837 73.8018 24.7277 74.1755 24.6156C74.5492 24.5035 74.8762 24.3633 75.1564 24.1952L76.2775 27.194C76.0159 27.3621 75.717 27.521 75.3807 27.6704C75.063 27.8012 74.708 27.9227 74.3157 28.0348C73.942 28.1282 73.587 28.1936 73.2507 28.231C72.9144 28.2683 72.6061 28.287 72.3258 28.287C71.429 28.287 70.6349 28.1656 69.9436 27.9227C69.271 27.6798 68.7104 27.3154 68.262 26.8296C67.851 26.4186 67.5427 25.8861 67.3371 25.2322C67.1503 24.5782 67.0569 23.8402 67.0569 23.0181V16.7683H64.8148V13.321H67.0569V9.28527H71.0086V13.321H75.3526V16.7683H71.0086V22.0932C71.0086 22.4295 71.0273 22.7565 71.0646 23.0741C71.1207 23.3731 71.2234 23.6533 71.3729 23.9149C71.5411 24.1765 71.7653 24.3914 72.0455 24.5595C72.3445 24.709 72.7182 24.7837 73.1666 24.7837ZM84.7893 28.315C82.3978 28.315 80.5574 27.6424 79.2682 26.2971C77.979 24.9332 77.3344 23.0461 77.3344 20.6359C77.3344 19.4774 77.5025 18.4311 77.8389 17.4969C78.1939 16.544 78.6796 15.7313 79.2962 15.0587C79.9315 14.386 80.7069 13.8816 81.6224 13.5452C82.5566 13.1902 83.6122 13.0127 84.7893 13.0127C85.9478 13.0127 86.9847 13.1902 87.9002 13.5452C88.8345 13.8816 89.6192 14.386 90.2544 15.0587C90.9084 15.7313 91.4035 16.544 91.7398 17.4969C92.0948 18.4311 92.2723 19.4774 92.2723 20.6359C92.2723 23.0648 91.6184 24.9519 90.3105 26.2971C89.0213 27.6424 87.1809 28.315 84.7893 28.315ZM84.7893 16.544C83.5749 16.544 82.678 16.9364 82.0988 17.7211C81.5196 18.5059 81.23 19.4868 81.23 20.6639C81.23 21.8597 81.5196 22.8499 82.0988 23.6347C82.678 24.4194 83.5749 24.8118 84.7893 24.8118C86.0038 24.8118 86.8913 24.4194 87.4518 23.6347C88.0124 22.8499 88.2926 21.8597 88.2926 20.6639C88.2926 19.4868 88.0124 18.5059 87.4518 17.7211C86.8913 16.9364 86.0038 16.544 84.7893 16.544ZM101.564 24.8118C102.311 24.8118 102.9 24.6343 103.33 24.2793C103.778 23.9243 104.049 23.5226 104.143 23.0741H108.29C108.16 24.027 107.889 24.8304 107.478 25.4844C107.067 26.1383 106.553 26.6802 105.936 27.1099C105.338 27.5396 104.656 27.8479 103.89 28.0348C103.124 28.2216 102.33 28.315 101.508 28.315C100.275 28.315 99.2006 28.1469 98.285 27.8106C97.3882 27.4556 96.6408 26.9511 96.0429 26.2971C95.4451 25.6245 94.9873 24.8211 94.6697 23.8869C94.3707 22.934 94.2212 21.869 94.2212 20.6919C94.2212 19.5522 94.3894 18.5059 94.7257 17.553C95.062 16.6001 95.5385 15.7873 96.155 15.1147C96.7903 14.4421 97.5657 13.9283 98.4812 13.5733C99.3967 13.1996 100.443 13.0127 101.62 13.0127C102.48 13.0127 103.283 13.1155 104.03 13.321C104.796 13.5266 105.469 13.8442 106.048 14.2739C106.646 14.7037 107.132 15.2548 107.506 15.9275C107.898 16.5814 108.16 17.3661 108.29 18.2817H104.143C104.049 17.8332 103.769 17.4315 103.302 17.0765C102.853 16.7215 102.265 16.544 101.536 16.544C100.919 16.544 100.387 16.6561 99.9386 16.8804C99.4902 17.1046 99.1352 17.4129 98.8736 17.8052C98.612 18.1976 98.4252 18.646 98.3131 19.1505C98.201 19.6549 98.1449 20.1874 98.1449 20.748C98.1449 21.3459 98.2103 21.897 98.3411 22.4015C98.4719 22.8873 98.6681 23.317 98.9296 23.6907C99.1912 24.0457 99.5369 24.326 99.9666 24.5315C100.415 24.7183 100.948 24.8118 101.564 24.8118ZM114.663 22.4576V28.0908H110.711V8.2483H114.663V19.0384H116.625L119.82 13.321H124.332L119.96 20.3276L124.668 28.0908H120.072L116.765 22.4576H114.663ZM145.835 8.2483H150.543L143.985 18.1696L150.711 28.0908H145.975L141.491 21.2805L136.839 28.0908H132.27L139.081 18.1415L132.494 8.2483H137.231L141.575 15.1147L145.835 8.2483Z" fill="#070707"/>
</svg>
