<svg width="50" height="50" viewBox="0 0 50 50" fill="none" xmlns="http://www.w3.org/2000/svg">
<path d="M36.0078 2H5.09162C3.38416 2 2 3.38416 2 5.09162V36.0078C2 37.7152 3.38416 39.0994 5.09162 39.0994H36.0078C37.7152 39.0994 39.0994 37.7152 39.0994 36.0078V5.09162C39.0994 3.38416 37.7152 2 36.0078 2Z" stroke="#070707" stroke-width="2.5" stroke-linecap="round" stroke-linejoin="round"/>
<path d="M17.9875 25.7396C17.8024 25.8319 17.5969 25.8754 17.3903 25.8659C17.1837 25.8565 16.983 25.7944 16.8071 25.6856C16.6313 25.5768 16.4862 25.4249 16.3855 25.2442C16.2848 25.0636 16.232 24.8602 16.232 24.6534V16.446C16.232 16.2392 16.2848 16.0358 16.3855 15.8552C16.4862 15.6745 16.6313 15.5226 16.8071 15.4138C16.983 15.305 17.1837 15.2429 17.3903 15.2334C17.5969 15.224 17.8024 15.2675 17.9875 15.3597L26.1964 19.4649C26.398 19.5655 26.5676 19.7203 26.6861 19.9119C26.8046 20.1036 26.8674 20.3244 26.8674 20.5497C26.8674 20.775 26.8046 20.9958 26.6861 21.1875C26.5676 21.3791 26.398 21.5339 26.1964 21.6345L17.9875 25.7396Z" stroke="#070707" stroke-width="2.5" stroke-linecap="round" stroke-linejoin="round"/>
<path d="M45.2826 11.2749C46.1026 11.2749 46.8889 11.6006 47.4687 12.1804C48.0485 12.7602 48.3743 13.5466 48.3743 14.3665V45.2827C48.3743 46.1026 48.0485 46.889 47.4687 47.4688C46.8889 48.0486 46.1026 48.3743 45.2826 48.3743H14.3665C13.5465 48.3743 12.7601 48.0486 12.1804 47.4688C11.6006 46.889 11.2748 46.1026 11.2748 45.2827" stroke="#070707" stroke-width="2.5" stroke-linecap="round" stroke-linejoin="round"/>
</svg>
