<svg width="24" height="24" viewBox="0 0 24 24" fill="none" xmlns="http://www.w3.org/2000/svg">
<rect x="2.4353" y="2.4353" width="19.1295" height="19.1295" rx="4" stroke="#070707" stroke-width="1.5"/>
<path d="M10.234 15.3032C10.1162 15.362 9.98538 15.3896 9.85391 15.3836C9.72243 15.3776 9.59468 15.3381 9.48276 15.2688C9.37084 15.1996 9.27846 15.1029 9.2144 14.9879C9.15033 14.873 9.1167 14.7435 9.1167 14.6119V9.38823C9.1167 9.25662 9.15033 9.12719 9.2144 9.01222C9.27846 8.89725 9.37084 8.80056 9.48276 8.73131C9.59468 8.66206 9.72243 8.62255 9.85391 8.61653C9.98538 8.61051 10.1162 8.63818 10.234 8.69691L15.4586 11.3097C15.5869 11.3737 15.6948 11.4722 15.7702 11.5942C15.8457 11.7161 15.8856 11.8567 15.8856 12.0001C15.8856 12.1435 15.8457 12.284 15.7702 12.406C15.6948 12.5279 15.5869 12.6265 15.4586 12.6905L10.234 15.3032Z" stroke="#070707" stroke-width="1.5"/>
</svg>
