<svg width="80" height="80" viewBox="0 0 80 80" fill="none" xmlns="http://www.w3.org/2000/svg">
<mask id="mask0_4_26665" style="mask-type:alpha" maskUnits="userSpaceOnUse" x="0" y="0" width="80" height="80">
<rect width="80" height="80" fill="#F4F4F4"/>
</mask>
<g mask="url(#mask0_4_26665)">
<rect x="-10" y="-10" width="100" height="100" fill="#F4F4F4"/>
<path d="M28.7053 58.8248C27.3739 58.8248 26.0971 58.2959 25.1557 57.3545C24.2143 56.4131 23.6854 55.1362 23.6854 53.8049V32.4002C23.6849 31.6211 23.8665 30.8527 24.2159 30.1564L27.5825 23.4214C27.6867 23.2128 27.8469 23.0373 28.0452 22.9147C28.2435 22.792 28.4721 22.7271 28.7053 22.7271C28.9385 22.7271 29.167 22.792 29.3653 22.9147C29.5637 23.0373 29.7239 23.2128 29.8281 23.4214L33.1947 30.1564C33.544 30.8527 33.7257 31.6211 33.7251 32.4002V53.8049C33.7251 55.1362 33.1963 56.4131 32.2549 57.3545C31.3135 58.2959 30.0366 58.8248 28.7053 58.8248V58.8248Z" stroke="#070707" stroke-width="2.5" stroke-linecap="round" stroke-linejoin="round"/>
<path d="M23.8276 31.2153H33.5829" stroke="#070707" stroke-width="2.5" stroke-linecap="round" stroke-linejoin="round"/>
<path d="M23.6854 52.5498H33.7251" stroke="#070707" stroke-width="2.5" stroke-linecap="round" stroke-linejoin="round"/>
<path d="M53.8045 21.1758H43.7648C42.3786 21.1758 41.2549 22.2995 41.2549 23.6857V56.3148C41.2549 57.701 42.3786 58.8247 43.7648 58.8247H53.8045C55.1907 58.8247 56.3145 57.701 56.3145 56.3148V23.6857C56.3145 22.2995 55.1907 21.1758 53.8045 21.1758Z" stroke="#070707" stroke-width="2.5" stroke-linecap="round" stroke-linejoin="round"/>
<path d="M41.2549 28.7056H46.2747" stroke="#070707" stroke-width="2.5" stroke-linecap="round" stroke-linejoin="round"/>
<path d="M41.2549 36.2358H46.2747" stroke="#070707" stroke-width="2.5" stroke-linecap="round" stroke-linejoin="round"/>
<path d="M41.2549 43.7651H46.2747" stroke="#070707" stroke-width="2.5" stroke-linecap="round" stroke-linejoin="round"/>
<path d="M41.2549 51.2949H46.2747" stroke="#070707" stroke-width="2.5" stroke-linecap="round" stroke-linejoin="round"/>
</g>
</svg>
